<svg xmlns="http://www.w3.org/2000/svg" viewBox="0 0 256 256" fill="none">
  <defs>
    <linearGradient id="bg" x1="34" y1="26" x2="224" y2="236" gradientUnits="userSpaceOnUse">
      <stop offset="0" stop-color="#141821"/>
      <stop offset="0.58" stop-color="#0D1016"/>
      <stop offset="1" stop-color="#090B10"/>
    </linearGradient>
    <linearGradient id="edge" x1="24" y1="32" x2="236" y2="230" gradientUnits="userSpaceOnUse">
      <stop offset="0" stop-color="#0DCCF2" stop-opacity="0.78"/>
      <stop offset="0.5" stop-color="#4F46E5" stop-opacity="0.55"/>
      <stop offset="1" stop-color="#FFFFFF" stop-opacity="0.08"/>
    </linearGradient>
    <linearGradient id="barA" x1="81" y1="108" x2="178" y2="160" gradientUnits="userSpaceOnUse">
      <stop offset="0" stop-color="#8DF2FF"/>
      <stop offset="0.45" stop-color="#0DCCF2"/>
      <stop offset="1" stop-color="#4F46E5"/>
    </linearGradient>
    <linearGradient id="barB" x1="84" y1="150" x2="178" y2="92" gradientUnits="userSpaceOnUse">
      <stop offset="0" stop-color="#4F46E5"/>
      <stop offset="0.55" stop-color="#0DCCF2"/>
      <stop offset="1" stop-color="#A5B4FC"/>
    </linearGradient>
    <radialGradient id="glow" cx="0" cy="0" r="1" gradientUnits="userSpaceOnUse" gradientTransform="translate(128 128) rotate(90) scale(86)">
      <stop offset="0" stop-color="#0DCCF2" stop-opacity="0.24"/>
      <stop offset="0.5" stop-color="#4F46E5" stop-opacity="0.18"/>
      <stop offset="1" stop-color="#0C0E12" stop-opacity="0"/>
    </radialGradient>
    <mask id="cutout">
      <rect width="256" height="256" fill="white"/>
      <rect x="106" y="106" width="44" height="44" rx="16" fill="black"/>
    </mask>
  </defs>

  <rect x="20" y="20" width="216" height="216" rx="56" fill="url(#bg)"/>
  <rect x="20.75" y="20.75" width="214.5" height="214.5" rx="55.25" stroke="url(#edge)" stroke-width="1.5"/>
  <circle cx="128" cy="128" r="84" fill="url(#glow)"/>
  <path d="M52 74C83 42 130 30 168 44" stroke="#FFFFFF" stroke-opacity="0.07" stroke-linecap="round" stroke-width="8"/>

  <g mask="url(#cutout)">
    <rect x="80" y="106" width="96" height="44" rx="22" transform="rotate(-45 80 106)" fill="url(#barA)"/>
    <rect x="80" y="106" width="96" height="44" rx="22" transform="rotate(45 80 106)" fill="url(#barB)"/>
    <rect x="106" y="80" width="44" height="96" rx="22" fill="#E8FBFF" fill-opacity="0.14"/>
  </g>

  <rect x="92" y="92" width="72" height="72" rx="24" stroke="#FFFFFF" stroke-opacity="0.08" stroke-width="2"/>
</svg>
