<svg xmlns="http://www.w3.org/2000/svg" viewBox="0 0 256 256" fill="none">
  <defs>
    <linearGradient id="bg" x1="30" y1="24" x2="228" y2="234" gradientUnits="userSpaceOnUse">
      <stop offset="0" stop-color="#11151D"/>
      <stop offset="0.62" stop-color="#0C0F15"/>
      <stop offset="1" stop-color="#080A0F"/>
    </linearGradient>
    <linearGradient id="edge" x1="24" y1="28" x2="234" y2="234" gradientUnits="userSpaceOnUse">
      <stop offset="0" stop-color="#4F46E5" stop-opacity="0.82"/>
      <stop offset="0.42" stop-color="#0DCCF2" stop-opacity="0.58"/>
      <stop offset="1" stop-color="#FFFFFF" stop-opacity="0.08"/>
    </linearGradient>
    <linearGradient id="strokeA" x1="84" y1="72" x2="184" y2="182" gradientUnits="userSpaceOnUse">
      <stop offset="0" stop-color="#9AF4FF"/>
      <stop offset="0.38" stop-color="#0DCCF2"/>
      <stop offset="1" stop-color="#4F46E5"/>
    </linearGradient>
    <linearGradient id="strokeB" x1="126" y1="128" x2="194" y2="192" gradientUnits="userSpaceOnUse">
      <stop offset="0" stop-color="#6F68FF"/>
      <stop offset="1" stop-color="#A5F3FC"/>
    </linearGradient>
    <radialGradient id="glow" cx="0" cy="0" r="1" gradientUnits="userSpaceOnUse" gradientTransform="translate(132 120) rotate(90) scale(90)">
      <stop offset="0" stop-color="#4F46E5" stop-opacity="0.2"/>
      <stop offset="0.48" stop-color="#0DCCF2" stop-opacity="0.16"/>
      <stop offset="1" stop-color="#0C0E12" stop-opacity="0"/>
    </radialGradient>
  </defs>

  <rect x="20" y="20" width="216" height="216" rx="56" fill="url(#bg)"/>
  <rect x="20.75" y="20.75" width="214.5" height="214.5" rx="55.25" stroke="url(#edge)" stroke-width="1.5"/>
  <circle cx="132" cy="120" r="92" fill="url(#glow)"/>
  <circle cx="78" cy="176" r="20" fill="#0DCCF2" fill-opacity="0.08"/>

  <path
    d="M92 74V182M92 78H140C166 78 184 94 184 116C184 138 166 154 140 154H92"
    stroke="url(#strokeA)"
    stroke-linecap="round"
    stroke-linejoin="round"
    stroke-width="22"
  />
  <path
    d="M132 130V182H186"
    stroke="url(#strokeB)"
    stroke-linecap="round"
    stroke-linejoin="round"
    stroke-width="18"
  />
  <path
    d="M145 78C155 82 163 89 169 98"
    stroke="#FFFFFF"
    stroke-linecap="round"
    stroke-width="6"
    opacity="0.22"
  />
</svg>
